<?xml version="1.0" encoding="UTF-8" standalone="no"?>
<!-- Generator: Adobe Illustrator 21.1.0, SVG Export Plug-In . SVG Version: 6.00 Build 0)  -->

<svg
   xmlns:dc="http://purl.org/dc/elements/1.1/"
   xmlns:cc="http://creativecommons.org/ns#"
   xmlns:rdf="http://www.w3.org/1999/02/22-rdf-syntax-ns#"
   xmlns:svg="http://www.w3.org/2000/svg"
   xmlns="http://www.w3.org/2000/svg"
   xmlns:sodipodi="http://sodipodi.sourceforge.net/DTD/sodipodi-0.dtd"
   xmlns:inkscape="http://www.inkscape.org/namespaces/inkscape"
   version="1.1"
   id="Icons"
   x="0px"
   y="0px"
   width="39"
   height="39"
   viewBox="0 0 39 39"
   enable-background="new 0 0 30 30"
   xml:space="preserve"
   sodipodi:docname="restroom-water-table-s.svg"
   inkscape:version="0.92.3 (2405546, 2018-03-11)"
   inkscape:export-filename="C:\Users\Chris\Documents\GitHub\lightroom-gps-extractor\icons\restroom-water-table-s.png"
   inkscape:export-xdpi="157.53999"
   inkscape:export-ydpi="157.53999"><metadata
   id="metadata11"><rdf:RDF><cc:Work
       rdf:about=""><dc:format>image/svg+xml</dc:format><dc:type
         rdf:resource="http://purl.org/dc/dcmitype/StillImage" /><dc:title></dc:title></cc:Work></rdf:RDF></metadata><defs
   id="defs9" /><sodipodi:namedview
   pagecolor="#ffffff"
   bordercolor="#666666"
   borderopacity="1"
   objecttolerance="10"
   gridtolerance="10"
   guidetolerance="10"
   inkscape:pageopacity="0"
   inkscape:pageshadow="2"
   inkscape:window-width="875"
   inkscape:window-height="869"
   id="namedview7"
   showgrid="false"
   inkscape:zoom="7.8666667"
   inkscape:cx="17.427966"
   inkscape:cy="14.354754"
   inkscape:window-x="678"
   inkscape:window-y="470"
   inkscape:window-maximized="0"
   inkscape:current-layer="Icons"
   fit-margin-top="0"
   fit-margin-left="0"
   fit-margin-right="0"
   fit-margin-bottom="0" />


<g
   id="g8536"><rect
     rx="4.38798"
     ry="4.38798"
     y="1"
     x="1"
     height="37.32745"
     width="36.864403"
     id="rect4521-5"
     style="opacity:1;fill:#ffffff;fill-opacity:0.49803922;stroke:none;stroke-width:2;stroke-linecap:round;stroke-linejoin:round;stroke-miterlimit:4;stroke-dasharray:none;stroke-opacity:1;paint-order:markers stroke fill" /><rect
     rx="4.38798"
     ry="4.38798"
     y="1"
     x="1"
     height="37"
     width="37"
     id="rect4521"
     style="opacity:1;fill:none;fill-opacity:0.18823529;stroke:#7f7f7f;stroke-width:2;stroke-linecap:round;stroke-linejoin:round;stroke-miterlimit:4;stroke-dasharray:none;stroke-opacity:1;paint-order:markers stroke fill" /></g><rect
   style="opacity:1;fill:none;fill-opacity:0.18823529;stroke:none;stroke-width:2;stroke-linecap:round;stroke-linejoin:round;stroke-miterlimit:4;stroke-dasharray:none;stroke-opacity:1;paint-order:markers stroke fill"
   id="rect4521-8"
   width="36.864403"
   height="37.32745"
   x="1.0677986"
   y="0.8362751"
   ry="4.38798"
   rx="4.38798" /><g
   transform="matrix(0.8,0,0,0.8,7.5,0.725424)"
   id="g12"
   style="stroke-width:1.25"><rect
     x="14"
     y="3"
     width="2"
     height="24"
     id="rect2"
     style="stroke-width:1.25" /><polygon
     points="30,15 29,17 28,17 28,10 27,10 27,26 26,27 25,27 25,17 24,17 24,27 23,27 22,26 22,10 21,10 21,17 20,17 19,15 19,9 20,9 20,8 29,8 29,9 30,9 "
     id="polygon4"
     style="stroke-width:1.25" /><polygon
     points="4,11 1,19 3,19 3,26 5,27 5,19 6,19 6,27 8,26 8,19 10,19 7,11 7,9 10,15 11,15 11,14 8,8 3,8 0,14 0,15 1,15 4,9 "
     id="polygon6"
     style="stroke-width:1.25" /><path
     inkscape:connector-curvature="0"
     d="M 6,7 H 5 C 4.4,7 4,6.5 4,6 V 5 C 4,4.4 4.4,4 5,4 H 6 C 6.6,4 7,4.4 7,5 V 6 C 7,6.5 6.6,7 6,7 Z"
     id="path8"
     style="stroke-width:1.25" /><path
     inkscape:connector-curvature="0"
     d="M 25,7 H 24 C 23.4,7 23,6.5 23,6 V 5 c 0,-0.6 0.4,-1 1,-1 h 1 c 0.6,0 1,0.4 1,1 v 1 c 0,0.5 -0.4,1 -1,1 z"
     id="path10"
     style="stroke-width:1.25" /></g><g
   transform="matrix(0.4,0,0,0.4,1.8118648,21.981969)"
   id="g821"
   style="stroke-width:2.5"><polygon
     style="fill:#0000ff;fill-opacity:1;stroke-width:2.5"
     transform="translate(4.4322014,4.6637249)"
     id="polygon2"
     points="7.5,30 2.5,0 5.5,0 9.5,27 20.5,27 24.5,0 27.5,0 22.5,30 " /><path
     style="fill:#0000ff;fill-opacity:1;stroke-width:2.5"
     inkscape:connector-curvature="0"
     id="path4"
     d="m 26.532201,8.6637249 c -0.5,0.6 -1.3,0.9 -2.1,1 -1,-0.1 -2,-0.6 -2.5,-1.5 -0.6,0.9 -1.5,1.4 -2.6,1.5 -1,-0.1 -2,-0.6 -2.5,-1.5 -0.5,0.9 -1.5,1.5 -2.5,1.5 -0.8,-0.1 -1.5,-0.4 -2,-1 l -0.4,-2.8 c 0.5,0.8 1.4,1.4 2.4,1.5 1.1,-0.1 2,-0.7 2.5,-1.7 0.5,0.9 1.4,1.6 2.5,1.7 1.1,-0.1 2,-0.8 2.5,-1.7 0.5,0.9 1.4,1.6 2.5,1.7 1.1,-0.1 2,-0.8 2.5,-1.7 z" /></g><g
   transform="matrix(0.64,0,0,0.64,15.69661,20.435932)"
   id="g4"
   style="fill:#7c2828;fill-opacity:1;stroke-width:1.5625"><path
     inkscape:connector-curvature="0"
     d="M 30,15 H 23 L 20,8 h 5 V 5 H 5 v 3 h 5 L 7,15 H 0 v 3 h 6 l -3,8 h 3 l 3,-8 h 12 l 3,8 h 3 l -3,-8 h 6 z m -20,0 3,-7 h 4 l 3,7 z"
     id="path2"
     style="fill:#7c2828;fill-opacity:1;stroke-width:1.5625" /></g></svg>