<?xml version="1.0" encoding="UTF-8" standalone="no"?>
<!-- Generator: Adobe Illustrator 21.1.0, SVG Export Plug-In . SVG Version: 6.00 Build 0)  -->

<svg
   xmlns:dc="http://purl.org/dc/elements/1.1/"
   xmlns:cc="http://creativecommons.org/ns#"
   xmlns:rdf="http://www.w3.org/1999/02/22-rdf-syntax-ns#"
   xmlns:svg="http://www.w3.org/2000/svg"
   xmlns="http://www.w3.org/2000/svg"
   xmlns:sodipodi="http://sodipodi.sourceforge.net/DTD/sodipodi-0.dtd"
   xmlns:inkscape="http://www.inkscape.org/namespaces/inkscape"
   version="1.1"
   id="Icons"
   x="0px"
   y="0px"
   width="38.864403"
   height="39.32745"
   viewBox="0 0 38.864403 39.32745"
   enable-background="new 0 0 30 30"
   xml:space="preserve"
   sodipodi:docname="water bordered.svg"
   inkscape:version="0.92.3 (2405546, 2018-03-11)"><metadata
   id="metadata11"><rdf:RDF><cc:Work
       rdf:about=""><dc:format>image/svg+xml</dc:format><dc:type
         rdf:resource="http://purl.org/dc/dcmitype/StillImage" /><dc:title></dc:title></cc:Work></rdf:RDF></metadata><defs
   id="defs9" /><sodipodi:namedview
   pagecolor="#ffffff"
   bordercolor="#666666"
   borderopacity="1"
   objecttolerance="10"
   gridtolerance="10"
   guidetolerance="10"
   inkscape:pageopacity="0"
   inkscape:pageshadow="2"
   inkscape:window-width="1310"
   inkscape:window-height="869"
   id="namedview7"
   showgrid="false"
   inkscape:zoom="7.8666667"
   inkscape:cx="31.64448"
   inkscape:cy="19.663725"
   inkscape:window-x="481"
   inkscape:window-y="312"
   inkscape:window-maximized="0"
   inkscape:current-layer="Icons" />
<polygon
   points="9.5,27 20.5,27 24.5,0 27.5,0 22.5,30 7.5,30 2.5,0 5.5,0 "
   id="polygon2"
   transform="translate(4.4322014,4.6637249)" />
<path
   d="m 26.532201,8.6637249 c -0.5,0.6 -1.3,0.9 -2.1,1 -1,-0.1 -2,-0.6 -2.5,-1.5 -0.6,0.9 -1.5,1.4 -2.6,1.5 -1,-0.1 -2,-0.6 -2.5,-1.5 -0.5,0.9 -1.5,1.5 -2.5,1.5 -0.8,-0.1 -1.5,-0.4 -2,-1 l -0.4,-2.8 c 0.5,0.8 1.4,1.4 2.4,1.5 1.1,-0.1 2,-0.7 2.5,-1.7 0.5,0.9 1.4,1.6 2.5,1.7 1.1,-0.1 2,-0.8 2.5,-1.7 0.5,0.9 1.4,1.6 2.5,1.7 1.1,-0.1 2,-0.8 2.5,-1.7 z"
   id="path4"
   inkscape:connector-curvature="0" />
<rect
   style="opacity:1;fill:#ffffff;fill-opacity:0.1882353;stroke:#000000;stroke-width:2;stroke-linecap:round;stroke-linejoin:round;stroke-miterlimit:4;stroke-dasharray:none;stroke-opacity:1;paint-order:markers stroke fill"
   id="rect4521"
   width="36.864403"
   height="37.32745"
   x="1"
   y="1"
   ry="4.38798"
   rx="4.38798" /><rect
   style="opacity:1;fill:none;fill-opacity:0.18823529;stroke:none;stroke-width:2;stroke-linecap:round;stroke-linejoin:round;stroke-miterlimit:4;stroke-dasharray:none;stroke-opacity:1;paint-order:markers stroke fill"
   id="rect4521-8"
   width="36.864403"
   height="37.32745"
   x="1"
   y="1"
   ry="4.38798"
   rx="4.38798" /></svg>