<?xml version="1.0" encoding="iso-8859-1"?>
<!-- Generator: Adobe Illustrator 13.0.2, SVG Export Plug-In . SVG Version: 6.00 Build 14948)  -->
<!DOCTYPE svg PUBLIC "-//W3C//DTD SVG 1.1//EN" "http://www.w3.org/Graphics/SVG/1.1/DTD/svg11.dtd">
<svg version="1.1" id="Layer_1" xmlns="http://www.w3.org/2000/svg" xmlns:xlink="http://www.w3.org/1999/xlink" x="0px" y="0px"
	 width="123.547px" height="123.539px" viewBox="-0.258 -0.548 123.547 123.539"
	 style="enable-background:new -0.258 -0.548 123.547 123.539;" xml:space="preserve">
<g>
	<path style="fill:#231F20;" d="M109.086,123.27c8.148,0,14.758-6.609,14.758-14.766V14.48c0-8.148-6.609-14.758-14.758-14.758
		H15.062c-8.148,0-14.758,6.609-14.758,14.758v94.023c0,8.156,6.609,14.766,14.758,14.766H109.086z"/>
	<path style="fill:#FFFFFF;" d="M15.062,2.23c-6.758,0-12.25,5.5-12.25,12.25v94.023c0,6.773,5.492,12.266,12.25,12.266h94.023
		c6.75,0,12.25-5.492,12.25-12.266V14.48c0-6.75-5.5-12.25-12.25-12.25H15.062z"/>
	<path style="fill:#231F20;" d="M83.391,33.426c-1.617,1.562-3.797,2.18-6.203,2.18c-3.062,0-5.852-1.25-7.445-3.617
		c-1.586,2.414-4.398,3.617-7.5,3.617c-3.062,0-5.82-1.273-7.422-3.641c-1.586,2.438-4.383,3.641-7.516,3.641
		c-2.273,0-4.344-0.516-5.906-1.906l-1.188-8.5c1.625,2.148,4.203,3.539,7.094,3.539c3.133,0,5.93-1.531,7.516-3.977
		c1.602,2.367,4.359,3.977,7.422,3.977c3.102,0,5.914-1.531,7.5-3.953c1.594,2.367,4.383,3.953,7.445,3.953
		c3.125,0,5.883-1.609,7.461-4.047L83.391,33.426z"/>
	<polygon style="fill:#231F20;" points="85.648,105.207 99.188,18.793 90.078,18.879 77.758,96.09 47.086,96.09 34.766,18.879 
		25.664,18.793 39.195,105.207 	"/>
</g>
</svg>
